<svg width="45" height="22" viewBox="0 0 45 22" fill="none" xmlns="http://www.w3.org/2000/svg">
<path d="M1.37949 17.6217C1.18181 17.304 0.918236 16.7964 0.755441 16.4206C-0.194194 14.2198 -0.236831 11.9415 0.561638 9.75625C1.4415 7.35787 3.12371 5.52518 5.29819 4.58753C8.03081 3.41353 11.0503 3.64213 13.6705 5.19584C15.3333 6.149 16.5116 7.62135 17.407 9.70588C17.5194 9.97323 17.6202 10.2561 17.721 10.5002L1.37949 17.6217ZM6.83698 8.12504C4.89508 8.95808 3.89505 10.7791 4.10436 12.9102L12.3216 9.37267C10.9069 7.71434 9.0696 7.16414 6.83698 8.12504V8.12504ZM13.3449 15.82C13.341 15.82 13.341 15.8239 13.341 15.8239L13.1705 15.7076C12.6782 16.5019 11.9146 17.149 10.9495 17.5675C9.11223 18.3656 7.41064 18.1603 6.1858 17.087L6.0734 17.2575C6.0734 17.2575 6.0734 17.2536 6.06952 17.2536L3.9842 20.3727C4.50359 20.733 5.05787 21.0352 5.63928 21.2793C7.94166 22.2364 10.2983 22.1899 12.6201 21.1825C14.2984 20.454 15.6163 19.3459 16.5155 17.9394L13.3449 15.82ZM23.4304 0V17.335L26.1281 18.4276L24.5971 22L21.6203 20.7601C20.9536 20.4695 20.4962 20.0278 20.1551 19.528C19.8257 19.0204 19.5815 18.3191 19.5815 17.3815V0H23.4304ZM30.4151 12.9218C30.4151 11.4456 31.0701 10.1205 32.1012 9.22156L29.3337 6.13737C27.4576 7.7957 26.2754 10.2173 26.2754 12.9141C26.2716 15.6147 27.4538 18.0402 29.3259 19.6985L32.0895 16.6143C31.0624 15.7115 30.4151 14.3942 30.4151 12.9218V12.9218ZM35.3299 17.8387C34.7873 17.8387 34.2601 17.7457 33.7717 17.583L32.45 21.5079C33.3531 21.8101 34.3183 21.9768 35.326 21.9768C39.706 21.9806 43.3611 18.8732 44.21 14.7467L40.1479 13.9176C39.6866 16.161 37.7059 17.8426 35.3299 17.8387V17.8387ZM35.3415 3.86685C34.3376 3.86685 33.3725 4.02959 32.4694 4.32793L33.7795 8.25678C34.2718 8.09405 34.795 8.00493 35.3377 8.00493C37.7176 8.00881 39.7021 9.69813 40.1517 11.9454L44.2139 11.124C43.3805 6.98978 39.7254 3.87073 35.3415 3.86685V3.86685Z" fill="white"/>
</svg>
